<?xml version="1.0" encoding="UTF-8"?>
<svg id="Layer_1" data-name="Layer 1" xmlns="http://www.w3.org/2000/svg" viewBox="0 0 488.66 104.52">
  <path d="M3.29,11.97h9.58v75.88H3.29V11.97Z" fill="#f9a825" stroke-width="0"/>
  <path d="M19.47,11.97h10.38l10.98,52.61V11.97h8.69v75.88h-10.38l-10.98-51.82v51.82h-8.69V11.97Z" fill="currentColor" stroke-width="0"/>
  <path d="M72.38,19.96v67.89h-9.58V19.96h-9.09v-7.99h27.76v7.99h-9.09Z" fill="currentColor" stroke-width="0"/>
  <path d="M85.65,11.97h23.66v8.19h-14.08v25.16h12.28v8.19h-12.28v26.16h14.28v8.19h-23.86V11.97Z" fill="currentColor" stroke-width="0"/>
  <path d="M114.6,11.97h22.16l5.99,5.99v31.55l-5.29,5.29,5.99,33.05h-9.29l-5.89-32.35h-4.09v32.35h-9.58V11.97ZM133.17,45.72v-23.76l-2-2h-6.99v27.76h6.99l2-2Z" fill="currentColor" stroke-width="0"/>
  <path d="M155.43,87.85l-8.69-75.88h9.38l6.19,64.6,6.19-64.6h8.99l-8.69,75.88h-13.38Z" fill="currentColor" stroke-width="0"/>
  <path d="M181.69,11.97h9.58v75.88h-9.58V11.97Z" fill="currentColor" stroke-width="0"/>
  <path d="M197.86,11.97h23.66v8.19h-14.08v25.16h12.28v8.19h-12.28v26.16h14.28v8.19h-23.86V11.97Z" fill="currentColor" stroke-width="0"/>
  <path d="M257.86,87.85l-5.19-63.9-5.19,63.9h-13.38l-9.68-75.88h9.98l5.69,65.59,6.69-65.59h11.98l6.69,65.59,5.69-65.59h9.38l-9.68,75.88h-12.98Z" fill="currentColor" stroke-width="0"/>
  <path d="M316.36,87.85l-5.19-63.9-5.19,63.9h-13.38l-9.68-75.88h9.98l5.69,65.59,6.69-65.59h11.98l6.69,65.59,5.69-65.59h9.38l-9.68,75.88h-12.98Z" fill="#f9a825" stroke-width="0"/>
  <path d="M343.21,11.97h9.58v75.88h-9.58V11.97Z" fill="currentColor" stroke-width="0"/>
  <path d="M357.88,87.85v-5.19l15.18-62.5h-14.58v-8.19h24.46v5.19l-14.58,62.5h14.88v8.19h-25.36Z" fill="currentColor" stroke-width="0"/>
  <path d="M397.42,68.28l-1.9,19.57h-9.58l9.08-75.88h13.78l9.29,75.88h-9.98l-1.9-19.57h-8.79ZM401.81,21.86l-3.69,38.24h7.39l-3.69-38.24Z" fill="currentColor" stroke-width="0"/>
  <path d="M422.27,11.97h22.16l5.99,5.99v31.55l-5.29,5.29,5.99,33.05h-9.28l-5.89-32.35h-4.09v32.35h-9.58V11.97ZM440.84,45.72v-23.76l-2-2h-6.99v27.76h6.99l2-2Z" fill="currentColor" stroke-width="0"/>
  <path d="M485.67,17.96v63.9l-5.99,5.99h-22.46V11.97h22.46l5.99,5.99ZM476.08,77.67V22.16l-2-2h-7.29v59.5h7.29l2-2Z" fill="currentColor" stroke-width="0"/>
</svg>